<svg width="793" height="225" viewBox="0 0 793 225" fill="none" xmlns="http://www.w3.org/2000/svg">
<path d="M40.7619 0.787778C24.5516 7.57318 6.73113 26.7428 1.10283 50.8048C-6.02497 81.2923 23.6371 94.1844 26.07 89.9572C28.9335 84.9902 20.7549 83.3106 19.0714 67.4923C16.8956 47.0616 26.3938 24.2325 38.3476 14.2158C40.5696 12.3548 40.4639 14.9451 40.4639 19.7362C40.4639 28.3038 39.9905 105.216 39.9905 121.267C39.9905 142.987 39.0934 149.846 37.4822 156.623C35.8497 163.491 33.2252 168.132 35.2139 169.919C37.4358 171.919 46.9225 167.163 52.4145 159.498C59.0002 150.305 61.3055 139.264 61.7194 127.274C62.2193 112.821 62.198 89.8871 62.2193 76.8056C62.2393 64.8079 62.4214 29.676 62.009 8.55597C61.9079 3.37567 47.5411 -2.05924 40.7611 0.781461L40.7619 0.787778ZM616.388 102.435C615.866 113.726 613.366 122.552 610.264 128.778C604.259 140.83 591.797 144.572 586.506 127.247C583.623 117.803 583.488 102.03 585.561 88.8517C587.671 75.4262 593.563 65.2869 603.32 66.2013C612.944 67.1052 617.448 79.5059 616.388 102.435ZM454.153 172.491C454.022 191.252 451.07 207.703 444.737 212.48C435.757 219.255 423.686 214.173 426.185 200.483C428.397 188.368 438.856 175.995 454.178 160.878C454.178 160.878 454.21 164.326 454.153 172.491ZM451.7 102.326C451.151 112.61 448.485 122.942 445.576 128.779C439.572 140.831 427.02 144.599 421.818 127.248C418.261 115.394 419.113 100.051 420.873 90.3834C423.156 77.8404 428.691 66.2039 438.632 66.2039C448.297 66.2039 453.063 76.8065 451.7 102.326ZM357.717 102.168C357.128 113.06 355.003 122.166 351.593 128.779C345.423 140.748 333.218 144.544 327.835 127.248C323.954 114.777 325.275 97.7713 326.889 88.585C329.285 74.953 335.284 65.2881 344.649 66.2039C354.268 67.1437 358.945 79.5059 357.717 102.168ZM788.421 114.891C786.069 114.891 784.996 117.315 784.108 121.395C781.029 135.581 777.792 138.785 773.618 138.785C768.955 138.785 764.765 131.76 763.688 117.698C762.841 106.641 762.977 86.2843 764.06 66.0348C764.281 61.8743 763.134 57.7578 751.974 53.7039C747.173 51.9602 740.193 49.3927 736.717 57.7818C726.898 81.4825 723.056 100.299 722.152 107.943C722.105 108.338 721.62 108.419 721.535 107.495C720.959 101.373 719.671 90.2475 719.511 66.8734C719.48 62.3129 718.514 58.4309 713.48 55.2528C710.214 53.1906 700.296 49.5434 696.725 53.8825C693.631 57.4312 690.048 66.9813 686.324 78.3018C683.298 87.5027 681.191 93.7268 681.191 93.7268C681.191 93.7268 681.231 68.9009 681.267 59.484C681.283 55.9314 678.846 54.7476 678.111 54.533C674.804 53.5731 668.288 51.9696 665.522 51.9696C662.109 51.9696 661.273 53.8771 661.273 56.6566C661.273 57.0205 660.734 89.3424 660.734 111.943C660.734 112.925 660.735 113.996 660.745 115.134C658.857 125.521 652.735 139.622 646.078 139.622C639.413 139.622 636.268 133.727 636.268 106.783C636.268 91.0652 636.74 84.2305 636.972 72.8621C637.106 66.314 637.366 61.2855 637.352 60.1444C637.303 56.6451 631.252 54.8814 628.436 54.2296C625.607 53.5723 623.149 53.3178 621.229 53.4271C618.513 53.5804 616.59 55.3627 616.59 57.8142C616.59 59.1286 616.605 61.6281 616.605 61.6281C613.106 56.1292 607.478 52.3019 603.733 51.1928C593.647 48.1974 583.122 50.8516 575.184 61.9602C568.875 70.7865 565.071 80.7832 563.574 95.1458C562.48 105.646 562.837 116.294 564.782 125.299C562.432 135.46 558.069 139.622 553.291 139.622C546.355 139.622 541.327 128.301 541.911 108.722C542.296 95.8436 544.873 86.806 547.689 73.7312C548.891 68.1576 547.915 65.2395 545.467 62.4427C543.222 59.8779 538.439 58.5675 531.563 60.1792C526.665 61.3283 519.663 62.5639 513.256 63.5131C513.256 63.5131 513.643 61.9708 513.96 59.2514C515.626 44.9901 500.129 46.1471 495.185 50.7022C492.233 53.4217 490.224 56.6292 489.462 62.3961C488.253 71.5477 495.717 75.8642 495.717 75.8642C493.268 87.074 487.265 101.718 481.068 112.305C477.748 117.977 475.209 122.181 471.931 126.649C471.919 124.985 471.91 123.322 471.904 121.666C471.829 98.0981 472.142 79.5497 472.281 72.8643C472.416 66.3163 472.678 61.4212 472.663 60.2801C472.626 57.7206 471.132 56.754 468.023 55.5302C465.274 54.4478 462.024 53.6986 458.653 53.4373C454.398 53.1054 451.834 55.3624 451.901 58.0312C451.914 58.5351 451.914 61.6292 451.914 61.6292C448.414 56.1302 442.786 52.303 439.042 51.1938C428.955 48.1997 418.431 50.8539 410.492 61.9611C404.184 70.7874 400.053 83.173 398.883 95.0374C397.792 106.095 397.993 115.492 399.48 123.408C397.876 131.334 393.265 139.623 388.051 139.623C381.386 139.623 377.593 133.728 377.593 106.784C377.593 91.0662 378.065 84.2315 378.297 72.8643C378.432 66.3163 378.692 61.2866 378.677 60.1468C378.628 56.6475 372.577 54.8838 369.762 54.2306C366.815 53.5494 364.272 53.2988 362.319 53.4427C359.742 53.6347 357.93 55.9422 357.93 57.6632V61.6292C354.431 56.1302 348.803 52.303 345.058 51.1938C334.972 48.1997 324.506 50.8966 316.509 61.9611C311.294 69.1757 307.072 77.1742 304.899 94.8801C304.271 99.9968 303.994 104.788 304.03 109.267C301.951 121.985 292.766 136.643 285.252 136.643C280.856 136.643 276.669 128.115 276.669 109.941C276.669 85.7325 278.167 51.2645 278.42 47.9425C278.42 47.9425 287.913 47.7812 289.752 47.7598C294.487 47.7078 298.775 47.8198 305.082 47.4972C308.245 47.3359 311.293 35.9833 308.028 34.5783C306.548 33.9424 296.09 33.3853 291.945 33.2973C288.459 33.2183 278.754 32.5001 278.754 32.5001C278.754 32.5001 279.624 9.62175 279.827 7.20495C279.999 5.19065 277.393 4.15356 275.898 3.52426C272.264 1.98726 269.013 1.25138 265.159 0.456876C259.835 -0.641524 257.419 0.432864 256.947 4.92666C256.237 11.7468 255.869 31.7229 255.869 31.7229C251.962 31.7229 238.615 30.9591 234.706 30.9591C231.075 30.9591 227.156 46.5761 232.176 46.768C237.952 46.992 248.018 47.1853 254.692 47.3866C254.692 47.3866 254.394 82.4224 254.394 93.239C254.394 94.3898 254.404 95.4981 254.406 96.5734C250.734 115.716 237.798 126.057 237.798 126.057C240.576 113.393 234.901 103.883 224.679 95.8322C220.913 92.8656 213.478 87.2493 205.16 81.0949C205.16 81.0949 209.978 76.3466 214.25 66.7938C217.278 60.0271 217.408 52.2832 209.978 50.5756C197.7 47.7521 187.577 56.769 184.557 66.3952C182.218 73.8524 183.465 79.386 188.049 85.1342C188.383 85.5542 188.746 85.9834 189.12 86.4153C186.349 91.7572 182.542 98.9492 179.317 104.526C170.367 120.011 163.605 132.26 158.496 132.26C154.411 132.26 154.466 119.825 154.466 108.182C154.466 98.1447 155.207 83.0545 155.799 67.4309C155.995 62.2639 153.411 59.3205 149.08 56.6544C146.449 55.0347 140.832 51.8499 137.58 51.8499C132.711 51.8499 118.665 52.5125 105.392 90.9038C103.72 95.7427 100.434 104.56 100.434 104.56L100.717 58.3927C100.717 57.3103 100.14 56.2638 98.8202 55.5479C96.5837 54.3335 90.6103 51.8499 85.2988 51.8499C82.7681 51.8499 81.5052 53.0271 81.5052 55.3733L81.0419 127.602C81.0419 133.09 81.185 139.492 81.7276 142.293C82.2682 145.096 83.144 147.377 84.2287 148.734C85.3118 150.088 86.5647 151.122 88.6304 151.548C90.553 151.944 101.081 153.296 101.628 149.273C102.284 144.451 102.309 139.236 107.837 119.786C116.443 89.5054 127.664 74.7309 132.939 69.4839C133.861 68.5668 134.914 68.5121 134.863 70.0131C134.638 76.6519 133.846 93.2407 133.313 107.334C131.884 145.049 138.745 152.04 148.55 152.04C156.051 152.04 166.625 144.587 177.96 125.72C185.027 113.962 191.888 102.434 196.818 94.1245C200.254 97.3047 204.109 100.727 207.961 104.384C216.914 112.881 219.854 120.955 217.903 128.615C216.412 134.471 210.794 140.506 200.796 134.64C197.882 132.929 196.638 131.607 193.708 129.678C192.134 128.641 189.73 128.331 188.289 129.417C184.546 132.24 182.405 135.829 181.183 140.274C179.993 144.599 184.325 146.885 188.814 148.884C192.68 150.605 200.989 152.165 206.288 152.342C226.935 153.033 243.475 142.374 254.988 114.878C257.049 138.624 265.821 152.061 281.061 152.061C291.249 152.061 301.465 138.891 305.932 125.936C307.214 131.217 309.113 135.809 311.564 139.693C323.307 158.299 346.088 154.294 357.531 138.495C361.069 133.613 361.608 131.859 361.608 131.859C363.277 146.777 375.29 151.989 382.169 151.989C389.873 151.989 397.827 148.347 403.402 135.796C404.056 137.159 404.769 138.459 405.547 139.692C417.29 158.298 440.071 154.294 451.514 138.494C452.054 137.753 452.522 137.081 452.932 136.478L453.267 146.277C453.267 146.277 446.739 152.265 442.732 155.939C425.096 172.12 411.685 184.396 410.698 198.692C409.432 216.92 424.216 223.695 435.4 224.583C447.278 225.526 457.449 218.964 463.701 209.782C469.2 201.699 472.8 184.304 472.536 167.123C472.43 160.243 472.257 151.496 472.121 142.119C478.32 134.92 485.304 125.822 491.735 115.172C498.743 103.566 506.253 87.9799 510.099 75.8503C510.099 75.8503 516.625 75.9062 523.589 75.4503C525.816 75.305 526.456 75.7596 526.044 77.3927C525.547 79.3656 517.246 111.383 524.822 132.713C530.007 147.314 541.697 152.012 548.628 152.012C556.741 152.012 564.502 145.885 568.661 136.787C569.162 137.801 569.686 138.782 570.258 139.688C582.001 158.294 604.702 154.266 616.225 138.49C618.826 134.931 620.302 131.854 620.302 131.854C622.775 147.294 634.782 152.064 641.659 152.064C648.823 152.064 655.622 149.127 661.138 136.075C661.369 141.821 661.731 146.521 662.305 148.002C662.654 148.908 664.689 150.045 666.17 150.595C672.724 153.025 679.408 151.876 681.881 151.376C683.594 151.029 684.93 149.655 685.112 146.106C685.592 136.788 685.297 121.132 688.122 109.497C692.864 89.9701 697.287 82.3957 699.385 78.6458C700.56 76.5448 701.885 76.1982 701.933 78.4218C702.032 82.9209 702.256 96.133 704.093 113.884C705.442 126.94 707.244 134.656 708.629 137.098C712.582 144.082 717.463 144.413 721.439 144.413C723.967 144.413 729.256 143.714 728.782 139.27C728.552 137.104 728.956 123.716 733.631 104.478C736.683 91.9152 741.773 80.5639 743.609 76.4141C744.286 74.8837 744.601 76.09 744.59 76.325C744.203 84.9767 743.336 113.275 746.86 128.752C751.638 149.719 765.459 152.065 770.276 152.065C780.558 152.065 788.967 144.244 791.8 123.664C792.482 118.711 791.472 114.887 788.444 114.887" fill="#262626"/>
</svg>
